<?xml version="1.0" encoding="UTF-8"?>
<!DOCTYPE svg PUBLIC "-//W3C//DTD SVG 1.1//EN" "http://www.w3.org/Graphics/SVG/1.1/DTD/svg11.dtd">
<!-- Creator: CorelDRAW 2019 (64-Bit) -->
<svg xmlns="http://www.w3.org/2000/svg" xml:space="preserve" width="155.841mm" height="17.5997mm" version="1.1" style="shape-rendering:geometricPrecision; text-rendering:geometricPrecision; image-rendering:optimizeQuality; fill-rule:evenodd; clip-rule:evenodd"
viewBox="0 0 9533 1076.59"
 xmlns:xlink="http://www.w3.org/1999/xlink"
 xmlns:xodm="http://www.corel.com/coreldraw/odm/2003">
 <defs>
  <style type="text/css">
   <![CDATA[
    .fil0 {fill:#FEFEFE;fill-rule:nonzero}
    .fil1 {fill:red;fill-rule:nonzero}
   ]]>
  </style>
 </defs>
 <g id="Layer_x0020_1">
  <metadata id="CorelCorpID_0Corel-Layer"/>
  <path class="fil0" d="M642.57 319.6c0,80.01 -89.24,120.01 -267.73,120.01l-122.28 0c-168.37,0 -252.56,-40.01 -252.56,-120.01l0 -292.65c0,-17.97 13.06,-26.95 39.16,-26.95 27.71,0 41.57,8.99 41.57,26.95l0 287.52c0,48.77 53.28,73.16 159.85,73.16l147.86 0c116.15,0 174.23,-24.39 174.23,-73.16l0 -287.52c0,-17.97 13.32,-26.95 39.96,-26.95 26.64,0 39.95,8.99 39.95,26.95l0 292.65zm286.13 -163.65c-71.93,0 -107.9,17.12 -107.9,51.34l0 208.58c0,17.97 -12.78,26.96 -38.36,26.96 -25.04,0 -37.57,-8.99 -37.57,-26.96l0 -208.58c0,-67.6 63.94,-101.4 191.82,-101.4l34.36 0c18.65,0 27.97,8.34 27.97,25.03 0,16.69 -7.73,25.03 -23.17,25.03l-47.16 0zm196.61 94.34l406 0 0 -49.41c0,-29.95 -29.04,-44.92 -87.11,-44.92l-203.01 0c-77.25,0 -115.88,16.05 -115.88,48.14l0 46.2zm479.53 24.39c0,18.4 -11.46,27.59 -34.37,27.59l-445.17 0 0 41.72c0,29.95 38.63,44.92 115.88,44.92l83.12 0c21.32,0 31.97,8.34 31.97,25.03 0,17.12 -10.66,25.67 -31.97,25.67l-63.13 0c-140.66,0 -210.99,-34.44 -210.99,-103.32l0 -128.36c0,-68.03 69.53,-102.04 208.59,-102.04l170.24 0c117.22,0 175.83,29.74 175.83,89.21l0 79.58zm576.23 -18.61l-346.85 0c-59.15,0 -88.72,14.97 -88.72,44.92l0 45.56c0,28.24 31.44,42.36 94.31,42.36l250.15 0c60.75,0 91.11,-21.39 91.11,-64.18l0 -68.66zm72.74 85.99c0,65.03 -59.15,97.55 -177.43,97.55l-221.39 0c-124.14,0 -186.21,-31.23 -186.21,-93.7l0 -43.65c0,-64.6 60.74,-96.91 182.22,-96.91l329.28 0c-4.8,-32.94 -35.43,-49.41 -91.91,-49.41l-91.91 0c-18.12,0 -27.17,-8.56 -27.17,-25.67 0,-16.25 9.05,-24.38 27.17,-24.38l79.93 0c118.28,0 177.43,33.37 177.43,100.11l0 136.06zm251.76 -125.14l402.01 171.99c6.39,2.99 11.32,6.73 14.78,11.23 3.46,4.49 5.19,8.66 5.19,12.52 0,7.7 -3.33,14.55 -9.99,20.54 -6.66,5.99 -15.05,8.99 -25.18,8.99 -5.85,0 -12.52,-1.71 -19.98,-5.14l-429.98 -188.03 0 166.21c0,18.4 -13.05,27.6 -39.16,27.6 -26.64,0 -39.96,-9.2 -39.96,-27.6l0 -388.27c0,-17.97 13.59,-26.95 40.76,-26.95 25.58,0 38.36,8.99 38.36,26.95l0 161.09 409.99 -182.91c8,-3.42 15.19,-5.13 21.58,-5.13 10.66,0 19.72,3 27.18,8.99 7.46,5.99 11.19,12.62 11.19,19.89 0,3.85 -1.33,7.7 -4,11.55 -2.65,3.85 -7.46,7.28 -14.38,10.27l-388.42 166.22zm1044.58 198.95c0,17.97 -12.78,26.96 -38.36,26.96 -25.58,0 -38.36,-8.99 -38.36,-26.96l0 -218.84c0,-27.39 -34.37,-41.08 -103.1,-41.08l-189.42 0c-69.26,0 -103.9,13.69 -103.9,41.08l0 218.84c0,17.97 -12.52,26.96 -37.57,26.96 -25.04,0 -37.56,-8.99 -37.56,-26.96l0 -218.84c0,-60.76 66.6,-91.13 199.81,-91.13l146.25 0c134.8,0 202.2,30.38 202.2,91.13l0 218.84zm568.24 -211.78c0,-32.09 -35.69,-48.14 -107.09,-48.14l-172.63 0c-77.25,0 -115.88,17.76 -115.88,53.27l0 129c0,33.8 38.63,50.7 115.88,50.7l172.63 0c71.4,0 107.09,-16.9 107.09,-50.7l0 -134.13zm76.73 134.13c0,67.6 -65.27,101.4 -195.81,101.4l-151.85 0c-133.2,0 -199.8,-33.8 -199.8,-101.4l0 -129c0,-68.88 67.4,-103.32 202.2,-103.32l149.45 0c130.54,0 195.81,34.23 195.81,102.68l0 129.64zm692.92 82.78c-4.26,7.28 -10.92,12.73 -19.97,16.37 -9.06,3.63 -18.91,5.46 -29.58,5.46 -9.59,0 -18.91,-1.71 -27.97,-5.14 -9.06,-3.42 -14.93,-8.56 -17.59,-15.4l-140.66 -243.87 -142.27 243.87c-4.26,7.27 -11.05,12.63 -20.38,16.05 -9.32,3.43 -19.05,5.13 -29.17,5.13 -10.65,0 -20.38,-1.82 -29.17,-5.45 -8.79,-3.64 -15.32,-9.1 -19.57,-16.37l-160.65 -277.24c-2.13,-3.85 -3.2,-7.92 -3.2,-12.2 0,-8.99 4.13,-16.26 12.39,-21.82 8.26,-5.56 17.18,-8.34 26.77,-8.34 5.33,0 10.79,1.28 16.39,3.85 5.59,2.56 9.72,6.2 12.39,10.91l147.86 254.14 143.86 -243.87c4.26,-7.27 10.39,-12.73 18.38,-16.36 7.99,-3.64 16.25,-5.46 24.77,-5.46 9.05,0 17.98,1.71 26.77,5.13 8.79,3.43 15.05,8.77 18.78,16.05l143.86 244.51 146.25 -254.14c3.73,-7.7 12.52,-11.55 26.37,-11.55 9.59,0 19.18,2.46 28.77,7.38 9.59,4.92 14.38,11.45 14.38,19.57 0,3.85 -1.06,7.27 -3.19,10.27l-164.64 278.52zm887.94 -5.77c0,18.4 -13.58,27.6 -40.75,27.6 -26.11,0 -39.16,-9.2 -39.16,-27.6l0 -165.58 -489.13 0 0 165.58c0,18.4 -13.85,27.6 -41.55,27.6 -26.64,0 -39.96,-9.2 -39.96,-27.6l0 -388.27c0,-17.97 13.86,-26.95 41.56,-26.95 26.64,0 39.96,8.99 39.96,26.95l0 170.07 489.13 0 0 -170.07c0,-17.97 12.78,-26.95 38.36,-26.95 27.7,0 41.55,8.99 41.55,26.95l0 388.27zm572.24 -211.14c0,-32.09 -35.69,-48.14 -107.09,-48.14l-172.64 0c-77.25,0 -115.88,17.76 -115.88,53.27l0 129c0,33.8 38.63,50.7 115.88,50.7l172.64 0c71.39,0 107.09,-16.9 107.09,-50.7l0 -134.13zm76.73 134.13c0,67.6 -65.28,101.4 -195.81,101.4l-151.85 0c-133.2,0 -199.8,-33.8 -199.8,-101.4l0 -129c0,-68.88 67.4,-103.32 202.2,-103.32l149.45 0c130.54,0 195.81,34.23 195.81,102.68l0 129.64zm692.92 82.78c-4.26,7.28 -10.91,12.73 -19.97,16.37 -9.06,3.63 -18.91,5.46 -29.57,5.46 -9.59,0 -18.92,-1.71 -27.97,-5.14 -9.06,-3.42 -14.93,-8.56 -17.59,-15.4l-140.66 -243.87 -142.26 243.87c-4.26,7.27 -11.05,12.63 -20.38,16.05 -9.32,3.43 -19.05,5.13 -29.17,5.13 -10.65,0 -20.38,-1.82 -29.17,-5.45 -8.79,-3.64 -15.32,-9.1 -19.57,-16.37l-160.65 -277.24c-2.13,-3.85 -3.2,-7.92 -3.2,-12.2 0,-8.99 4.13,-16.26 12.39,-21.82 8.26,-5.56 17.18,-8.34 26.77,-8.34 5.33,0 10.79,1.28 16.39,3.85 5.59,2.56 9.72,6.2 12.39,10.91l147.86 254.14 143.86 -243.87c4.26,-7.27 10.39,-12.73 18.38,-16.36 7.99,-3.64 16.25,-5.46 24.77,-5.46 9.06,0 17.98,1.71 26.77,5.13 8.79,3.43 15.05,8.77 18.78,16.05l143.86 244.51 146.25 -254.14c3.73,-7.7 12.53,-11.55 26.38,-11.55 9.59,0 19.18,2.46 28.77,7.38 9.59,4.92 14.38,11.45 14.38,19.57 0,3.85 -1.06,7.27 -3.19,10.27l-164.65 278.52zm326.09 -15.4c0,22.25 -17.32,33.37 -51.95,33.37 -34.63,0 -51.95,-11.12 -51.95,-33.37 0,-20.97 17.32,-31.45 51.95,-31.45 34.63,0 51.95,10.48 51.95,31.45zm271.73 34.01c-136.4,0 -204.6,-32.73 -204.6,-98.19l0 -137.34c0,-65.47 62.07,-98.19 186.22,-98.19l278.13 0c23.44,0 35.17,8.13 35.17,24.38 0,17.12 -11.73,25.67 -35.17,25.67l-288.51 0c-67.14,0 -100.71,15.4 -100.71,46.21l0 136.06c0,33.8 38.64,50.7 115.89,50.7l273.33 0c20.79,0 31.17,8.99 31.17,26.95 0,15.83 -10.39,23.75 -31.17,23.75l-259.74 0zm843.18 -235.53c0,-32.09 -35.7,-48.14 -107.09,-48.14l-172.64 0c-77.25,0 -115.88,17.76 -115.88,53.27l0 129c0,33.8 38.63,50.7 115.88,50.7l172.64 0c71.39,0 107.09,-16.9 107.09,-50.7l0 -134.13zm76.73 134.13c0,67.6 -65.27,101.4 -195.81,101.4l-151.86 0c-133.19,0 -199.8,-33.8 -199.8,-101.4l0 -129c0,-68.88 67.4,-103.32 202.2,-103.32l149.45 0c130.54,0 195.81,34.23 195.81,102.68l0 129.64zm862.35 77.65c0,17.97 -12.78,26.96 -38.36,26.96 -25.04,0 -37.57,-8.99 -37.57,-26.96l0 -211.78c0,-32.09 -40.75,-48.14 -122.27,-48.14 -96.97,0 -145.46,18.82 -145.46,56.47l0 203.44c0,17.97 -12.25,26.96 -36.76,26.96 -26.11,0 -39.17,-8.99 -39.17,-26.96l0 -203.44c0,-37.65 -48.48,-56.47 -145.45,-56.47 -82.59,0 -123.88,16.05 -123.88,48.14l0 211.78c0,17.97 -12.78,26.96 -38.35,26.96 -24.51,0 -36.77,-8.99 -36.77,-26.96l0 -204.72c0,-70.17 66.33,-105.25 199.01,-105.25 99.1,0 160.91,18.18 185.42,54.55 27.17,-36.37 87.65,-54.55 181.43,-54.55 132.14,0 198.2,35.08 198.2,105.25l0 204.72z"/>
  <path class="fil1" d="M386.01 731.97l-111.94 254.19c-2.61,5.87 -6.68,10.51 -12.22,13.93 -5.54,3.42 -11.73,5.13 -18.58,5.13 -6.51,0 -12.55,-1.71 -18.08,-5.13 -5.54,-3.43 -9.94,-8.56 -13.2,-15.4l-129.05 -284.01c-0.32,-1.63 -0.57,-3.18 -0.73,-4.65 -0.16,-1.46 -0.24,-2.85 -0.24,-4.15 0,-6.51 2.69,-11.81 8.07,-15.89 5.38,-4.07 11.32,-6.11 17.84,-6.11 9.12,0 15.97,4.4 20.53,13.2l115.85 266.9 109.01 -257.62c3.26,-7.49 7.66,-12.96 13.2,-16.38 5.54,-3.42 11.9,-5.13 19.07,-5.13 6.19,0 11.98,1.63 17.35,4.89 5.38,3.26 9.37,7.98 11.97,14.18l111.45 260.06 112.92 -266.9c3.91,-9.13 11.08,-13.69 21.51,-13.69 6.19,0 12.06,2.12 17.6,6.36 5.54,4.24 8.31,9.62 8.31,16.13 0,3.58 -0.65,6.68 -1.95,9.29l-129.54 282.54c-2.61,7.17 -6.85,12.55 -12.71,16.13 -5.87,3.58 -12.06,5.38 -18.57,5.38 -5.87,0 -11.9,-1.71 -18.09,-5.13 -6.19,-3.43 -10.59,-8.39 -13.2,-14.91l-106.56 -253.21zm682.9 254.19c0,13.69 -7.82,20.54 -23.47,20.54 -15.64,0 -23.47,-6.85 -23.47,-20.54l0 -154.96c0,-28.68 -25.91,-43.02 -77.72,-43.02l-168.64 0 0 197.97c0,13.69 -7.82,20.54 -23.47,20.54 -15.32,0 -22.98,-6.85 -22.98,-20.54l0 -296.23c0,-13.69 7.66,-20.54 22.98,-20.54 15.64,0 23.47,6.85 23.47,20.54l0 60.13 153.98 0c92.88,0 139.32,26.72 139.32,80.16l0 155.94zm105.1 -126.12l248.32 0 0 -37.64c0,-22.81 -17.76,-34.22 -53.29,-34.22l-124.16 0c-47.25,0 -70.88,12.22 -70.88,36.66l0 35.2zm293.3 18.58c0,14.01 -7.01,21.02 -21.02,21.02l-272.28 0 0 31.77c0,22.81 23.62,34.22 70.88,34.22l50.84 0c13.04,0 19.55,6.36 19.55,19.07 0,13.04 -6.51,19.55 -19.55,19.55l-38.62 0c-86.04,0 -129.05,-26.24 -129.05,-78.7l0 -97.76c0,-51.82 42.53,-77.72 127.58,-77.72l104.12 0c71.7,0 107.54,22.65 107.54,67.95l0 60.61zm162.78 -90.44c-43.99,0 -65.99,13.04 -65.99,39.11l0 158.87c0,13.69 -7.82,20.54 -23.47,20.54 -15.32,0 -22.98,-6.85 -22.98,-20.54l0 -158.87c0,-51.49 39.11,-77.23 117.32,-77.23l21.02 0c11.41,0 17.11,6.36 17.11,19.06 0,12.71 -4.72,19.07 -14.17,19.07l-28.84 0zm120.26 71.86l248.32 0 0 -37.64c0,-22.81 -17.76,-34.22 -53.29,-34.22l-124.16 0c-47.25,0 -70.88,12.22 -70.88,36.66l0 35.2zm293.3 18.58c0,14.01 -7.01,21.02 -21.02,21.02l-272.28 0 0 31.77c0,22.81 23.62,34.22 70.88,34.22l50.84 0c13.04,0 19.55,6.36 19.55,19.07 0,13.04 -6.51,19.55 -19.55,19.55l-38.62 0c-86.04,0 -129.05,-26.24 -129.05,-78.7l0 -97.76c0,-51.82 42.53,-77.72 127.58,-77.72l104.12 0c71.7,0 107.54,22.65 107.54,67.95l0 60.61zm305.52 -90.44l0 197.97c0,13.69 -7.5,20.54 -22.49,20.54 -15.65,0 -23.47,-6.85 -23.47,-20.54l0 -197.97 -22.49 0c-13.04,0 -19.56,-6.52 -19.56,-19.56 0,-12.38 6.52,-18.57 19.56,-18.57l22.49 0 0 -60.13c0,-13.69 7.98,-20.54 23.95,-20.54 14.66,0 22,6.85 22,20.54l0 60.13 92.39 0c12.71,0 19.07,6.36 19.07,19.06 0,12.71 -6.36,19.07 -19.07,19.07l-92.39 0zm493.23 197.97c0,13.69 -7.82,20.54 -23.47,20.54 -15.64,0 -23.47,-6.85 -23.47,-20.54l0 -154.96c0,-28.68 -25.91,-43.02 -77.72,-43.02l-168.64 0 0 197.97c0,13.69 -7.82,20.54 -23.47,20.54 -15.32,0 -22.98,-6.85 -22.98,-20.54l0 -296.23c0,-13.69 7.66,-20.54 22.98,-20.54 15.64,0 23.47,6.85 23.47,20.54l0 60.13 153.98 0c92.88,0 139.32,26.72 139.32,80.16l0 155.94zm105.1 -126.12l248.32 0 0 -37.64c0,-22.81 -17.76,-34.22 -53.29,-34.22l-124.16 0c-47.25,0 -70.88,12.22 -70.88,36.66l0 35.2zm293.3 18.58c0,14.01 -7.01,21.02 -21.02,21.02l-272.28 0 0 31.77c0,22.81 23.62,34.22 70.88,34.22l50.84 0c13.04,0 19.55,6.36 19.55,19.07 0,13.04 -6.51,19.55 -19.55,19.55l-38.62 0c-86.04,0 -129.05,-26.24 -129.05,-78.7l0 -97.76c0,-51.82 42.53,-77.72 127.58,-77.72l104.12 0c71.7,0 107.54,22.65 107.54,67.95l0 60.61zm579.26 51.81c0,49.21 -43.02,73.82 -129.05,73.82l-80.17 0c-86.69,0 -130.03,-24.6 -130.03,-73.82l0 -164.73c0,-13.04 7.5,-19.56 22.49,-19.56 15.32,0 22.98,6.52 22.98,19.56l0 164.73c0,23.47 25.58,35.2 76.75,35.2l95.32 0c49.86,0 74.79,-11.41 74.79,-34.22l0 -165.71c0,-12.71 7.98,-19.07 23.95,-19.07 15.32,0 22.98,6.36 22.98,19.07l0 164.73zm174.52 -142.25c-43.99,0 -65.99,13.04 -65.99,39.11l0 158.87c0,13.69 -7.82,20.54 -23.47,20.54 -15.32,0 -22.98,-6.85 -22.98,-20.54l0 -158.87c0,-51.49 39.11,-77.23 117.32,-77.23l21.02 0c11.41,0 17.11,6.36 17.11,19.06 0,12.71 -4.72,19.07 -14.17,19.07l-28.84 0zm120.26 71.86l248.32 0 0 -37.64c0,-22.81 -17.76,-34.22 -53.29,-34.22l-124.16 0c-47.25,0 -70.88,12.22 -70.88,36.66l0 35.2zm293.3 18.58c0,14.01 -7.01,21.02 -21.02,21.02l-272.28 0 0 31.77c0,22.81 23.62,34.22 70.88,34.22l50.84 0c13.04,0 19.55,6.36 19.55,19.07 0,13.04 -6.51,19.55 -19.55,19.55l-38.62 0c-86.04,0 -129.05,-26.24 -129.05,-78.7l0 -97.76c0,-51.82 42.53,-77.72 127.58,-77.72l104.12 0c71.7,0 107.54,22.65 107.54,67.95l0 60.61zm352.44 -14.18l-212.15 0c-36.17,0 -54.26,11.41 -54.26,34.22l0 34.71c0,21.51 19.23,32.26 57.68,32.26l153 0c37.15,0 55.73,-16.3 55.73,-48.88l0 -52.31zm44.48 65.5c0,49.54 -36.17,74.3 -108.52,74.3l-135.41 0c-75.93,0 -113.9,-23.79 -113.9,-71.37l0 -33.24c0,-49.21 37.16,-73.82 111.45,-73.82l201.4 0c-2.93,-25.09 -21.67,-37.64 -56.22,-37.64l-56.22 0c-11.08,0 -16.62,-6.52 -16.62,-19.56 0,-12.38 5.54,-18.57 16.62,-18.57l48.89 0c72.35,0 108.52,25.42 108.52,76.26l0 103.63zm301.12 -216.06c0,15.97 -10.75,23.95 -32.26,23.95 -20.2,0 -30.31,-7.98 -30.31,-23.95 0,-16.29 10.11,-24.44 30.31,-24.44 21.51,0 32.26,8.15 32.26,24.44zm-7.82 272.28c0,13.69 -7.65,20.54 -22.97,20.54 -14.67,0 -22,-6.85 -22,-20.54l0 -201.39c0,-13.37 7,-20.05 21.02,-20.05 15.97,0 23.95,6.68 23.95,20.05l0 201.39zm401.82 0c0,13.69 -7.82,20.54 -23.47,20.54 -15.64,0 -23.47,-6.85 -23.47,-20.54l0 -166.69c0,-20.85 -21.02,-31.28 -63.06,-31.28l-115.85 0c-42.37,0 -63.55,10.43 -63.55,31.28l0 166.69c0,13.69 -7.66,20.54 -22.98,20.54 -15.32,0 -22.98,-6.85 -22.98,-20.54l0 -166.69c0,-46.28 40.74,-69.41 122.21,-69.41l89.46 0c82.45,0 123.68,23.13 123.68,69.41l0 166.69zm356.84 -197.48l-180.38 0c-47.25,0 -70.88,14.99 -70.88,44.97l0 90.92c0,27.37 22.65,41.06 67.94,41.06l106.57 0c51.16,0 76.75,-13.69 76.75,-41.06l0 -135.89zm45.46 141.27c0,49.54 -43.18,74.3 -129.54,74.3l-86.52 0c-84.4,0 -126.61,-23.3 -126.61,-69.9l0 -106.57c0,-51.82 42.2,-77.72 126.61,-77.72l170.6 0 0 -60.13c0,-13.69 7.33,-20.54 22,-20.54 15.65,0 23.47,6.85 23.47,20.54l0 240.01zm401.33 0.49c0,49.21 -43.02,73.82 -129.05,73.82l-80.17 0c-86.69,0 -130.03,-24.6 -130.03,-73.82l0 -164.73c0,-13.04 7.5,-19.56 22.49,-19.56 15.32,0 22.98,6.52 22.98,19.56l0 164.73c0,23.47 25.58,35.2 76.75,35.2l95.32 0c49.86,0 74.79,-11.41 74.79,-34.22l0 -165.71c0,-12.71 7.98,-19.07 23.95,-19.07 15.32,0 22.98,6.36 22.98,19.07l0 164.73zm369.07 6.36c0,44.97 -32.26,67.46 -96.78,67.46l-196.51 0c-13.69,0 -20.53,-6.19 -20.53,-18.58 0,-13.36 6.84,-20.04 20.53,-20.04l204.33 0c27.7,0 41.55,-9.62 41.55,-28.84l0 -15.15c0,-18.9 -15.65,-28.35 -46.93,-28.35l-109.01 0c-71.7,0 -107.54,-21.51 -107.54,-64.52l0 -16.62c0,-41.39 34.05,-62.08 102.17,-62.08l54.26 0c13.36,0 20.04,6.36 20.04,19.06 0,12.71 -6.68,19.07 -20.04,19.07l-65.01 0c-30.31,0 -45.46,7.98 -45.46,23.95l0 15.64c0,18.57 17.92,27.86 53.77,27.86l111.45 0c66.48,0 99.72,22 99.72,65.99l0 15.15zm98.75 -148.6l0 197.97c0,13.69 -7.5,20.54 -22.49,20.54 -15.65,0 -23.47,-6.85 -23.47,-20.54l0 -197.97 -22.49 0c-13.04,0 -19.56,-6.52 -19.56,-19.56 0,-12.38 6.52,-18.57 19.56,-18.57l22.49 0 0 -60.13c0,-13.69 7.98,-20.54 23.95,-20.54 14.66,0 22,6.85 22,20.54l0 60.13 92.39 0c12.71,0 19.07,6.36 19.07,19.06 0,12.71 -6.36,19.07 -19.07,19.07l-92.39 0zm252.72 0c-43.99,0 -65.99,13.04 -65.99,39.11l0 158.87c0,13.69 -7.82,20.54 -23.47,20.54 -15.32,0 -22.98,-6.85 -22.98,-20.54l0 -158.87c0,-51.49 39.11,-77.23 117.32,-77.23l21.02 0c11.41,0 17.11,6.36 17.11,19.06 0,12.71 -4.72,19.07 -14.17,19.07l-28.84 0zm421.86 218.51c0,46.6 -35.2,69.9 -105.59,69.9l-57.68 0c-12.06,0 -18.09,-6.36 -18.09,-19.07 0,-12.38 6.03,-18.57 18.09,-18.57l61.59 0c37.15,0 55.73,-10.75 55.73,-32.26l0 -2.45 -170.11 0c-80.5,0 -120.75,-24.6 -120.75,-73.82l0 -164.73c0,-12.71 7.66,-19.07 22.98,-19.07 15.32,0 22.98,6.36 22.98,19.07l0 164.73c0,23.47 22,35.2 65.99,35.2l178.91 0 0 -199.93c0,-12.71 7.49,-19.07 22.49,-19.07 15.64,0 23.47,6.36 23.47,19.07l0 241zm716.14 -20.54c0,13.69 -7.82,20.54 -23.47,20.54 -15.31,0 -22.97,-6.85 -22.97,-20.54l0 -161.31c0,-24.44 -24.93,-36.66 -74.79,-36.66 -59.31,0 -88.97,14.34 -88.97,43.02l0 154.96c0,13.69 -7.49,20.54 -22.49,20.54 -15.97,0 -23.95,-6.85 -23.95,-20.54l0 -154.96c0,-28.68 -29.66,-43.02 -88.97,-43.02 -50.51,0 -75.77,12.22 -75.77,36.66l0 161.31c0,13.69 -7.82,20.54 -23.47,20.54 -14.99,0 -22.49,-6.85 -22.49,-20.54l0 -155.94c0,-53.45 40.57,-80.16 121.72,-80.16 60.62,0 98.42,13.85 113.41,41.55 16.62,-27.7 53.61,-41.55 110.96,-41.55 80.82,0 121.23,26.72 121.23,80.16l0 155.94zm106.08 -126.12l248.32 0 0 -37.64c0,-22.81 -17.76,-34.22 -53.29,-34.22l-124.16 0c-47.25,0 -70.88,12.22 -70.88,36.66l0 35.2zm293.3 18.58c0,14.01 -7.01,21.02 -21.02,21.02l-272.28 0 0 31.77c0,22.81 23.62,34.22 70.88,34.22l50.84 0c13.04,0 19.55,6.36 19.55,19.07 0,13.04 -6.51,19.55 -19.55,19.55l-38.62 0c-86.04,0 -129.05,-26.24 -129.05,-78.7l0 -97.76c0,-51.82 42.53,-77.72 127.58,-77.72l104.12 0c71.7,0 107.54,22.65 107.54,67.95l0 60.61zm98.74 -18.58l248.32 0 0 -37.64c0,-22.81 -17.76,-34.22 -53.29,-34.22l-124.16 0c-47.25,0 -70.88,12.22 -70.88,36.66l0 35.2zm293.3 18.58c0,14.01 -7.01,21.02 -21.02,21.02l-272.28 0 0 31.77c0,22.81 23.62,34.22 70.88,34.22l50.84 0c13.04,0 19.55,6.36 19.55,19.07 0,13.04 -6.51,19.55 -19.55,19.55l-38.62 0c-86.04,0 -129.05,-26.24 -129.05,-78.7l0 -97.76c0,-51.82 42.53,-77.72 127.58,-77.72l104.12 0c71.7,0 107.54,22.65 107.54,67.95l0 60.61zm120.74 -90.44l0 197.97c0,13.69 -7.5,20.54 -22.49,20.54 -15.65,0 -23.47,-6.85 -23.47,-20.54l0 -197.97 -22.49 0c-13.04,0 -19.56,-6.52 -19.56,-19.56 0,-12.38 6.52,-18.57 19.56,-18.57l22.49 0 0 -60.13c0,-13.69 7.98,-20.54 23.95,-20.54 14.66,0 22,6.85 22,20.54l0 60.13 92.39 0c12.71,0 19.07,6.36 19.07,19.06 0,12.71 -6.36,19.07 -19.07,19.07l-92.39 0zm458.52 148.6c0,44.97 -32.26,67.46 -96.78,67.46l-196.51 0c-13.69,0 -20.53,-6.19 -20.53,-18.58 0,-13.36 6.84,-20.04 20.53,-20.04l204.33 0c27.7,0 41.55,-9.62 41.55,-28.84l0 -15.15c0,-18.9 -15.65,-28.35 -46.93,-28.35l-109.01 0c-71.7,0 -107.54,-21.51 -107.54,-64.52l0 -16.62c0,-41.39 34.05,-62.08 102.17,-62.08l54.26 0c13.36,0 20.04,6.36 20.04,19.06 0,12.71 -6.68,19.07 -20.04,19.07l-65.01 0c-30.31,0 -45.46,7.98 -45.46,23.95l0 15.64c0,18.57 17.92,27.86 53.77,27.86l111.45 0c66.48,0 99.72,22 99.72,65.99l0 15.15z"/>
 </g>
</svg>
