<?xml version="1.0" encoding="UTF-8"?> <svg xmlns="http://www.w3.org/2000/svg" xmlns:xlink="http://www.w3.org/1999/xlink" xmlns:xodm="http://www.corel.com/coreldraw/odm/2003" xml:space="preserve" width="146.94mm" height="50.7271mm" version="1.1" style="shape-rendering:geometricPrecision; text-rendering:geometricPrecision; image-rendering:optimizeQuality; fill-rule:evenodd; clip-rule:evenodd" viewBox="0 0 9031.13 3117.75"> <defs> <style type="text/css"> .fil4 {fill:none} .fil1 {fill:#FEFEFE} .fil0 {fill:#97A59A} .fil3 {fill:#FEFEFE;fill-rule:nonzero} .fil2 {fill:#97A59A;fill-rule:nonzero} .fil5 {fill:white;fill-rule:nonzero} </style> </defs> <g id="Layer_x0020_1"> <metadata id="CorelCorpID_0Corel-Layer"></metadata> <g id="_2869170666352"> <g> <path class="fil0" d="M1613.78 844.19c105.22,109.67 101.6,283.86 -8.06,389.08 -109.67,105.21 -283.86,101.6 -389.08,-8.06 -105.22,-109.67 -101.61,-283.87 8.06,-389.08 109.67,-105.22 283.86,-101.6 389.08,8.06z"></path> <path class="fil0" d="M1256.64 317.87c95.3,71.94 114.23,207.52 42.29,302.81 -71.95,95.3 -207.52,114.23 -302.81,42.29 -95.29,-71.94 -114.23,-207.51 -42.29,-302.81 71.94,-95.3 207.51,-114.23 302.81,-42.29z"></path> <path class="fil0" d="M2148 876.19c104.5,57.76 142.39,189.29 84.64,293.8 -57.76,104.5 -189.29,142.39 -293.8,84.64 -104.5,-57.76 -142.39,-189.3 -84.64,-293.8 57.76,-104.5 189.3,-142.39 293.8,-84.64z"></path> <path class="fil0" d="M1317.29 1419.44c111.95,41.49 169.07,165.9 127.58,277.85 -41.5,111.96 -165.9,169.08 -277.85,127.58 -111.96,-41.49 -169.08,-165.9 -127.58,-277.85 41.49,-111.96 165.89,-169.08 277.85,-127.58z"></path> </g> <polygon class="fil0" points="1681.16,1028.64 1837.99,1038.29 1837.99,1082.89 1681.16,1073.24 "></polygon> <polygon class="fil0" points="1227.73,663.68 1299.41,788.33 1262.19,812.91 1190.52,688.24 "></polygon> <polygon class="fil0" points="1362.61,1301.72 1324.79,1431.91 1283.1,1416.07 1320.91,1285.89 "></polygon> </g> <path class="fil1" d="M567.72 117.51c-2.56,11.43 -64.53,110.24 -103.2,157.86 -98.07,120.75 117.75,206.23 145.55,-7.52 12.49,-95.99 -33.61,-189.28 -42.35,-150.33zm251.39 262.89c-10.07,2.26 -97.16,56.88 -139.12,90.97 -106.43,86.42 -181.76,-103.8 6.63,-128.29 84.6,-11 166.81,29.63 132.49,37.33zm83.48 -254.19c-10.37,5.43 -89.78,90.86 -125.76,140.54 -91.26,125.98 -229.68,-60.37 -30.41,-142.55 89.49,-36.9 191.53,-16.51 156.17,2zm-532.49 217.9c0.48,11.7 -33.8,123.19 -58.83,179.19 -63.46,142.02 167.13,168.72 138.65,-44.95 -12.78,-95.95 -81.45,-174.13 -79.82,-134.24zm305.82 176.01c-9.13,4.79 -79.13,80.08 -110.84,123.87 -80.44,111.03 -202.43,-53.21 -26.8,-125.63 78.87,-32.53 168.8,-14.57 137.64,1.76zm-449.71 67.64c3.5,11.17 -0.76,127.74 -10.44,188.31 -24.55,153.61 205.1,119.72 122.3,-79.3 -37.19,-89.36 -123.75,-147.11 -111.85,-109.01zm366.87 135.92c-9.14,4.79 -79.13,80.08 -110.84,123.86 -80.43,111.03 -202.43,-53.21 -26.8,-125.63 78.87,-32.52 168.8,-14.56 137.64,1.77zm-435.8 129.3c6.27,9.88 32.32,123.58 38.64,184.59 16.05,154.73 229.1,62.57 97.61,-108.25 -59.05,-76.69 -157.61,-110.06 -136.25,-76.34zm394.46 60.71c-7.85,6.68 -59.54,95.54 -80.83,145.23 -54.01,126.01 -209.18,-7.32 -53.82,-116.64 69.78,-49.1 161.46,-51.38 134.65,-28.59zm-399.11 224.04c8.85,7.66 66.59,109.01 90.24,165.61 59.99,143.52 237.41,-6.18 62.24,-131.8 -78.66,-56.4 -182.66,-59.92 -152.48,-33.8zm395.21 -55.65c-5.6,8.67 -29.46,108.66 -35.51,162.38 -15.37,136.23 -202.4,53.33 -85.18,-96.17 52.65,-67.13 139.78,-95.76 120.69,-66.21zm-345.9 313.18c10.2,5.76 86.87,93.65 121.26,144.45 87.23,128.79 231.48,-53.08 34.89,-141.51 -88.27,-39.71 -190.9,-22.56 -156.15,-2.93zm376.36 -132.83c-3.77,9.6 -7.34,112.34 -2.63,166.19 11.92,136.59 -187.83,92.37 -102.54,-77.39 38.31,-76.24 118.04,-121.55 105.17,-88.81zm-279.56 368.29c10.93,4.22 99.61,79.98 141.04,125.21 105.1,114.68 221.26,-86.3 13.87,-145.1 -93.12,-26.4 -192.15,5.54 -154.91,19.89zm352.94 -186.33c-2.32,10.05 9.13,112.2 21.65,164.8 31.73,133.38 -172.33,118.78 -112.73,-61.6 26.77,-81.01 99.03,-137.48 91.08,-103.21zm-215.35 416.2c11.46,2.43 111.04,63.15 159.13,101.23 121.97,96.54 204.75,-120.33 -9.34,-145.45 -96.13,-11.28 -188.84,35.97 -149.79,44.22zm318.88 -240c-0.7,10.29 26.83,109.34 47.54,159.28 52.5,126.65 -151.29,144.64 -121.08,-42.92 13.58,-84.23 75.95,-151.45 73.54,-116.35zm-123.81 443.74c11.69,-0.74 123.92,31.01 180.47,54.78 143.41,60.24 164.92,-170.89 -48.06,-137.61 -95.62,14.95 -172.23,85.36 -132.41,82.83zm242.72 -316.81c2.09,10.1 55.2,98.11 88.57,140.65 84.58,107.91 -106.89,179.95 -128.17,-8.83 -9.54,-84.78 32.49,-166.28 39.6,-131.82zm-27.25 448.77c11.52,-2.09 126.67,16.43 185.6,33.48 149.43,43.21 143.99,-188.86 -63.69,-131.1 -93.26,25.93 -161.18,104.75 -121.91,97.62zm204.36 -342.82c3.25,9.78 66.2,91.05 104.28,129.44 96.52,97.37 -85.31,191.13 -128.32,6.09 -19.31,-83.11 12.99,-168.93 24.05,-135.53zm76.18 452.47c10.55,-5.08 126.49,-17.74 187.83,-16.93 155.55,2.05 88.77,-220.28 -96.16,-109.52 -83.05,49.72 -127.65,143.73 -91.68,126.44zm106.16 -384.74c5.72,8.58 87.96,70.24 134.86,97.17 118.88,68.3 -31.58,206.9 -122.12,39.89 -40.64,-75.02 -32.25,-166.34 -12.73,-137.06zm1100.57 -1803.7c2.56,11.43 64.53,110.24 103.2,157.86 98.07,120.75 -117.75,206.23 -145.56,-7.52 -12.48,-95.99 33.61,-189.28 42.36,-150.33zm-251.39 262.89c10.07,2.27 97.16,56.88 139.12,90.96 106.43,86.43 181.76,-103.79 -6.63,-128.29 -84.6,-11 -166.82,29.62 -132.49,37.33zm-83.48 -254.19c10.37,5.43 89.78,90.87 125.77,140.54 91.25,125.98 229.68,-60.37 30.4,-142.55 -89.49,-36.9 -191.53,-16.52 -156.18,2zm532.49 217.9c-0.47,11.7 33.81,123.19 58.84,179.19 63.46,142.02 -167.12,168.72 -138.65,-44.95 12.78,-95.95 81.45,-174.13 79.81,-134.24zm-305.81 176.01c9.14,4.79 79.13,80.09 110.85,123.87 80.43,111.03 202.42,-53.21 26.8,-125.63 -78.87,-32.52 -168.8,-14.56 -137.64,1.76zm449.71 67.64c-3.49,11.17 0.77,127.74 10.44,188.31 24.55,153.61 -205.09,119.72 -122.3,-79.3 37.19,-89.36 123.75,-147.11 111.85,-109.01zm-366.87 135.92c9.13,4.79 79.13,80.08 110.84,123.86 80.43,111.04 202.43,-53.21 26.8,-125.63 -78.87,-32.52 -168.8,-14.56 -137.64,1.77zm435.8 129.3c-6.26,9.88 -32.32,123.58 -38.65,184.59 -16.04,154.73 -229.08,62.57 -97.59,-108.25 59.05,-76.69 157.61,-110.06 136.25,-76.34zm-394.48 60.71c7.87,6.68 59.56,95.54 80.86,145.23 54,126.01 209.16,-7.32 53.8,-116.64 -69.76,-49.1 -161.45,-51.38 -134.66,-28.59zm399.12 224.04c-8.84,7.66 -66.59,109.01 -90.25,165.61 -59.99,143.52 -237.39,-6.18 -62.23,-131.8 78.66,-56.4 182.66,-59.92 152.48,-33.8zm-395.21 -55.65c5.6,8.67 29.46,108.66 35.52,162.38 15.36,136.23 202.39,53.33 85.16,-96.17 -52.64,-67.13 -139.77,-95.76 -120.68,-66.21zm345.9 313.17c-10.19,5.77 -86.87,93.66 -121.27,144.45 -87.23,128.8 -231.47,-53.07 -34.89,-141.51 88.28,-39.71 190.9,-22.56 156.16,-2.94zm-376.37 -132.83c3.78,9.61 7.36,112.35 2.66,166.2 -11.93,136.59 187.83,92.36 102.52,-77.39 -38.3,-76.23 -118.03,-121.55 -105.18,-88.81zm279.57 368.3c-10.93,4.22 -99.61,79.99 -141.05,125.2 -105.1,114.69 -221.25,-86.3 -13.87,-145.09 93.12,-26.4 192.15,5.54 154.91,19.89zm-352.95 -186.34c2.33,10.06 -9.12,112.22 -21.63,164.81 -31.74,133.37 172.33,118.77 112.72,-61.61 -26.77,-81 -99.03,-137.46 -91.09,-103.21zm215.37 416.21c-11.45,2.43 -111.04,63.15 -159.14,101.23 -121.96,96.54 -204.74,-120.33 9.34,-145.45 96.14,-11.28 188.85,35.98 149.79,44.23zm-318.89 -240c0.7,10.29 -26.82,109.34 -47.53,159.28 -52.51,126.64 151.29,144.63 121.08,-42.93 -13.58,-84.22 -75.95,-151.45 -73.55,-116.35zm123.82 443.74c-11.68,-0.74 -123.92,31.01 -180.47,54.76 -143.42,60.26 -164.91,-170.88 48.06,-137.59 95.63,14.95 172.25,85.36 132.42,82.83zm-242.72 -316.83c-2.09,10.11 -55.2,98.12 -88.55,140.67 -84.59,107.9 106.89,179.95 128.15,-8.84 9.54,-84.78 -32.49,-166.28 -39.6,-131.83zm27.25 448.78c-11.52,-2.09 -126.68,16.43 -185.61,33.47 -149.43,43.22 -143.99,-188.85 63.69,-131.1 93.26,25.94 161.19,104.76 121.92,97.63zm-204.36 -342.83c-3.25,9.8 -66.2,91.07 -104.26,129.46 -96.52,97.36 85.31,191.13 128.31,6.08 19.31,-83.1 -12.99,-168.93 -24.05,-135.54zm-76.18 452.48c-10.55,-5.08 -126.51,-17.74 -187.84,-16.93 -155.55,2.05 -88.76,-220.27 96.16,-109.52 83.05,49.73 127.65,143.74 91.68,126.45zm-106.16 -384.74c-5.72,8.59 -87.97,70.25 -134.85,97.18 -118.89,68.28 31.58,206.9 122.11,39.88 40.65,-75 32.26,-166.33 12.74,-137.06z"></path> <path class="fil1" d="M8520.57 1317.07l-5676.76 0c2.63,13.21 204.4,102.49 -126.78,358.17 133.6,287.74 -300.21,241.14 -189.81,343.11 15.08,13.92 29.02,38.54 30.72,60.64l5962.63 0 0 -761.92zm-3011.03 627.72l-22.19 -84.98 -147.12 0 -22.83 84.98 -134.44 0 147.65 -454.68 163.19 0 149.55 454.68 -133.8 0zm-47.66 -185.17l-19.45 -74.4c-4.55,-16.48 -10.04,-37.84 -16.59,-64.05 -6.45,-26.32 -10.78,-45.02 -12.79,-56.43 -1.9,10.57 -5.6,27.9 -10.99,52.1 -5.5,24.1 -17.65,71.76 -36.46,142.79l96.29 0zm419.26 -173.75c-29.07,0 -51.79,11.94 -68.06,35.72 -16.39,23.88 -24.52,56.75 -24.52,98.71 0,87.09 33.19,130.64 99.46,130.64 19.97,0 39.42,-2.75 58.23,-8.35 18.7,-5.6 37.63,-12.26 56.65,-20.18l0 103.57c-37.84,16.8 -80.54,25.16 -128.2,25.16 -68.38,0 -120.7,-19.87 -157.16,-59.51 -36.46,-39.63 -54.64,-96.92 -54.64,-171.85 0,-46.82 8.77,-88.04 26.42,-123.55 17.65,-35.51 43.02,-62.78 76.2,-81.91 33.19,-19.13 72.08,-28.64 116.89,-28.64 48.94,0 95.65,10.57 140.25,31.81l-37.42 96.29c-16.7,-7.93 -33.5,-14.48 -50.2,-19.87 -16.7,-5.39 -34.66,-8.03 -53.9,-8.03zm487.65 358.92l-22.19 -84.98 -147.12 0 -22.83 84.98 -134.44 0 147.65 -454.68 163.19 0 149.55 454.68 -133.8 0zm-47.66 -185.17l-19.45 -74.4c-4.55,-16.48 -10.04,-37.84 -16.59,-64.05 -6.45,-26.32 -10.78,-45.02 -12.79,-56.43 -1.9,10.57 -5.6,27.9 -10.99,52.1 -5.5,24.1 -17.65,71.76 -36.46,142.79l96.29 0zm614.69 -50.83c0,75.57 -20.82,133.8 -62.36,174.7 -41.64,40.9 -100.08,61.3 -175.44,61.3l-146.49 0 0 -452.77 156.74 0c72.61,0 128.73,18.6 168.26,55.7 39.53,37.2 59.29,90.9 59.29,161.07zm-126.94 4.54c0,-41.54 -8.24,-72.29 -24.62,-92.37 -16.39,-19.97 -41.33,-30.02 -74.83,-30.02l-35.62 0 0 253.66 27.26 0c37.2,0 64.47,-10.78 81.8,-32.34 17.33,-21.56 26,-54.53 26,-98.93zm476.88 231.46l-268.87 0 0 -452.77 268.87 0 0 98.29 -146.59 0 0 71.02 135.71 0 0 98.29 -135.71 0 0 85.61 146.59 0 0 99.56zm276.48 0l-92.69 -326.16 -2.75 0c4.33,55.59 6.45,98.71 6.45,129.47l0 196.69 -108.33 0 0 -452.77 162.87 0 94.48 321.5 2.54 0 92.59 -321.5 163.19 0 0 452.77 -112.46 0 0 -198.48c0,-10.36 0.22,-21.78 0.53,-34.46 0.32,-12.58 1.69,-43.44 4.12,-92.59l-2.75 0 -91.42 325.52 -116.36 0zm577.39 -284.94l78 -167.83 132.54 0 -148.92 275.95 0 176.82 -123.24 0 0 -173.12 -148.91 -279.65 133.17 0 77.37 167.83z"></path> <polygon class="fil2" points="3192.62,1158.11 3038.04,1158.11 3038.04,417.35 3462.71,417.35 3462.71,546 3192.62,546 3192.62,736.9 3444.04,736.9 3444.04,865.54 3192.62,865.54 "></polygon> <polygon id="1" class="fil2" points="4034.01,1158.11 3607.44,1158.11 3607.44,417.35 4034.01,417.35 4034.01,546 3764.45,546 3764.45,708.88 4015.17,708.88 4015.17,837.53 3764.45,837.53 3764.45,1028.42 4034.01,1028.42 "></polygon> <path id="2" class="fil2" d="M4345.43 746.23l50.66 0c49.63,0 86.29,-8.3 109.8,-24.9 23.69,-16.43 35.44,-42.54 35.44,-77.98 0,-35.11 -12.1,-60.18 -36.13,-75.04 -24.21,-14.87 -61.56,-22.31 -112.22,-22.31l-47.55 0 0 200.23zm0 127.61l0 284.26 -157 0 0 -740.76 215.8 0c100.63,0 174.99,18.33 223.23,54.99 48.41,36.66 72.45,92.33 72.45,166.85 0,43.58 -11.93,82.31 -35.97,116.37 -23.86,33.89 -57.76,60.52 -101.67,79.72 111.36,166.51 183.98,274.23 217.7,322.83l-174.3 0 -176.71 -284.26 -83.52 0z"></path> <polygon id="3" class="fil2" points="5158.98,1158.11 5001.98,1158.11 5001.98,548.07 4800.88,548.07 4800.88,417.35 5360.08,417.35 5360.08,548.07 5158.98,548.07 "></polygon> <polygon id="4" class="fil2" points="5474.21,1158.11 5474.21,417.35 5631.21,417.35 5631.21,1158.11 "></polygon> <polygon id="5" class="fil2" points="5817.61,1158.11 5817.61,417.35 5974.61,417.35 5974.61,1028.42 6275.13,1028.42 6275.13,1158.11 "></polygon> <polygon id="6" class="fil2" points="6403.78,1158.11 6403.78,417.35 6560.78,417.35 6560.78,1158.11 "></polygon> <polygon id="7" class="fil2" points="7229.78,1158.11 6678.88,1158.11 6678.88,1056.26 7033.87,547.04 6688.4,547.04 6688.4,417.35 7220.27,417.35 7220.27,518.68 6865.8,1028.42 7229.78,1028.42 "></polygon> <polygon id="8" class="fil2" points="7774.63,1158.11 7348.05,1158.11 7348.05,417.35 7774.63,417.35 7774.63,546 7505.06,546 7505.06,708.88 7755.78,708.88 7755.78,837.53 7505.06,837.53 7505.06,1028.42 7774.63,1028.42 "></polygon> <path id="9" class="fil2" d="M8086.04 746.23l50.66 0c49.63,0 86.29,-8.3 109.8,-24.9 23.69,-16.43 35.44,-42.54 35.44,-77.98 0,-35.11 -12.1,-60.18 -36.13,-75.04 -24.21,-14.87 -61.56,-22.31 -112.22,-22.31l-47.55 0 0 200.23zm0 127.61l0 284.26 -157 0 0 -740.76 215.8 0c100.63,0 174.99,18.33 223.23,54.99 48.41,36.66 72.45,92.33 72.45,166.85 0,43.58 -11.93,82.31 -35.97,116.37 -23.86,33.89 -57.76,60.52 -101.67,79.72 111.36,166.51 183.98,274.23 217.7,322.83l-174.3 0 -176.71 -284.26 -83.52 0z"></path> </g> <g id="__x0023_Layer_x0020_1"> <metadata id="CorelCorpID_1Corel-Layer"></metadata> <polygon class="fil3" points="509.01,2938.38 482.97,2938.38 402.67,2753.34 358.04,2789.24 327.34,2938.38 303.15,2938.38 375.9,2595.07 399.87,2595.07 362.76,2764.88 394.02,2736.43 553.65,2595.07 586.02,2595.07 421.91,2738.28 "></polygon> <path id="1" class="fil3" d="M721.94 2938.38l35.02 -162.44c3.29,-14.42 4.89,-26.61 4.89,-36.62 0,-12.5 -3.36,-22.27 -10.18,-29.33 -6.81,-7.05 -17.31,-10.58 -31.57,-10.58 -17.55,0 -33.98,5.21 -49.44,15.71 -15.39,10.5 -28.37,25.16 -38.95,43.99 -10.58,18.91 -18.67,41.35 -24.28,67.31l-23.96 111.95 -23 0 54.17 -255.32 19.31 0 -8.73 52.01 1.44 0c25.65,-37.26 58.18,-55.86 97.69,-55.86 20.36,0 35.58,4.97 45.76,14.99 10.18,10.02 15.23,24.44 15.23,43.19 0,10.98 -1.84,25.25 -5.61,42.8l-34.78 158.19 -23 0z"></path> <path id="2" class="fil3" d="M963.31 2678.25c28.21,0 50,8.49 65.39,25.48 15.46,16.99 23.16,40.47 23.16,70.36 0,30.85 -5.61,59.7 -16.83,86.55 -11.14,26.85 -26.45,47.28 -45.84,61.38 -19.48,14.11 -41.83,21.15 -67.16,21.15 -28.84,0 -50.72,-8.57 -65.63,-25.72 -14.98,-17.15 -22.44,-41.67 -22.44,-73.64 0,-29.89 5.69,-57.94 17.15,-84.07 11.46,-26.12 26.85,-46.24 46.24,-60.34 19.39,-14.11 41.42,-21.15 65.95,-21.15zm-1.84 20.2c-19.39,0 -36.86,6.17 -52.33,18.43 -15.54,12.26 -27.88,29.89 -37.1,52.89 -9.29,22.92 -13.86,47.2 -13.86,72.92 0,53.53 22.03,80.3 66.19,80.3 19.88,0 37.5,-6.09 52.97,-18.19 15.38,-12.18 27.65,-29.97 36.86,-53.53 9.13,-23.56 13.7,-49.45 13.7,-77.65 0,-24.12 -5.69,-42.72 -17.15,-55.7 -11.38,-12.98 -27.81,-19.47 -49.29,-19.47z"></path> <path id="3" class="fil3" d="M1261.98 2938.38l-14.11 -161.15c-2.16,-35.1 -3.29,-55.86 -3.29,-62.43l-1.36 0c-5.37,14.34 -16.59,37.1 -33.82,68.11l-83.58 155.47 -27.49 0 -4.73 -255.32 21.63 0 3.04 192.81 -0.72 36.94 1.44 0c9.53,-21 21.31,-44.24 35.18,-69.8l87.59 -159.95 18.11 0 14.98 159.95c2.24,23 3.28,46.32 3.28,69.8l1.44 0 5.61 -14.35 23.72 -55.46 75.17 -159.95 22.52 0 -119.24 255.32 -25.4 0z"></path> <polygon id="4" class="fil3" points="1432.18,2938.38 1410.15,2938.38 1488.52,2572.95 1510.64,2572.95 "></polygon> <path id="5" class="fil3" d="M1613.94 2943.18c-27.09,0 -48.24,-8.57 -63.39,-25.72 -15.14,-17.15 -22.75,-41.03 -22.75,-71.73 0,-28.36 5.53,-55.53 16.67,-81.5 11.14,-25.96 26.36,-46.64 45.92,-62.02 19.47,-15.31 40.95,-23 64.43,-23 17.79,0 32.05,4.81 42.71,14.35 10.66,9.54 15.95,22.52 15.95,38.95 0,28.37 -12.74,49.92 -38.39,64.83 -25.56,14.82 -63.54,22.28 -113.95,22.28l-7.77 0c-0.96,6.89 -1.36,14.58 -1.36,23 0,25.88 5.77,45.52 17.31,59.06 11.62,13.55 28.29,20.36 50,20.36 20.68,0 42.32,-5.69 64.84,-17.15l0 22.12c-21.88,10.82 -45.28,16.18 -70.2,16.18zm38.06 -243.77c-20.52,0 -39.59,9.06 -57.21,27.09 -17.55,18.11 -30.29,42.23 -38.15,72.44l11.54 0c80.94,0 121.32,-21.15 121.32,-63.38 0,-10.5 -3.36,-19.16 -10.18,-25.97 -6.81,-6.81 -15.94,-10.18 -27.33,-10.18z"></path> <path id="6" class="fil3" d="M1875.5 2679.21c35.98,0 57.86,17.15 65.47,51.45l0.96 0c1.92,-10.34 13.06,-62.91 33.58,-157.71l23.24 0 -77.49 365.42 -19.23 0 10.58 -64.27 -1.44 0c-27.09,46.08 -60.26,69.08 -99.53,69.08 -43.99,0 -65.95,-29.25 -65.95,-87.83 0,-30.21 5.61,-59.22 16.75,-86.87 11.22,-27.73 26.68,-49.52 46.4,-65.47 19.71,-15.87 41.91,-23.8 66.67,-23.8zm-58.42 242.81c13.86,0 27.88,-4.89 41.83,-14.66 14.03,-9.78 26.61,-22.92 37.58,-39.43 11.06,-16.59 19.39,-34.61 25,-54.25 5.69,-19.71 8.49,-36.06 8.49,-49.21 0,-19.71 -4.81,-35.5 -14.5,-47.36 -9.62,-11.78 -22.76,-17.71 -39.51,-17.71 -19.39,0 -36.94,6.49 -52.57,19.48 -15.71,12.98 -28.53,31.97 -38.55,56.97 -10.01,24.92 -14.98,50.56 -14.98,76.93 0,46.16 15.71,69.24 47.2,69.24z"></path> <path id="7" class="fil3" d="M2245.97 2683.06l-4.01 18.59 -57.05 2.57c4.09,4.41 7.45,10.98 10.18,19.71 2.8,8.81 4.17,17.71 4.17,26.85 0,17.07 -4.33,33.18 -12.83,48.4 -8.49,15.3 -20.11,26.69 -34.77,34.14 -14.58,7.53 -31.33,11.3 -50.08,11.3 -9.86,0 -15.87,-0.72 -18.11,-2.08 -12.5,5.13 -22.2,10.9 -29.09,17.15 -6.89,6.25 -10.34,12.66 -10.34,19.07 0,6.41 2.48,11.46 7.38,15.15 4.97,3.68 13.86,6.17 26.68,7.45l28.37 2.56c54.17,4.89 81.26,25.49 81.26,61.95 0,17.47 -5.05,32.94 -15.22,46.32 -10.18,13.31 -24.84,23.64 -43.91,30.77 -19.07,7.22 -41.91,10.82 -68.36,10.82 -29.09,0 -51.93,-5.61 -68.44,-16.91 -16.51,-11.22 -24.76,-27.09 -24.76,-47.6 0,-36.86 24.2,-62.99 72.52,-78.29 -12.18,-6.57 -18.27,-16.27 -18.27,-28.93 0,-19.31 14.98,-35.1 44.88,-47.52 -11.14,-5.61 -19.8,-13.87 -25.97,-24.76 -6.17,-10.9 -9.29,-23.16 -9.29,-36.94 0,-17.39 4.17,-33.34 12.58,-47.84 8.33,-14.58 19.95,-25.96 34.69,-34.3 14.83,-8.25 31.01,-12.42 48.49,-12.42 10.82,0 22.35,1.6 34.54,4.81l84.79 0zm-254.99 303.88c0,15.79 6.33,27.49 18.99,35.18 12.74,7.62 30.21,11.46 52.65,11.46 31.73,0 56.58,-5.85 74.37,-17.47 17.87,-11.62 26.77,-27.65 26.77,-47.92 0,-13.3 -4.89,-23.48 -14.66,-30.61 -9.78,-7.14 -26.85,-11.62 -51.29,-13.47l-37.58 -3.53c-24.52,7.06 -42.23,15.95 -53.05,26.85 -10.82,10.82 -16.18,24.04 -16.18,39.51zm63.62 -215.56c0,17.55 4.57,30.85 13.71,39.91 9.21,9.05 22.03,13.62 38.62,13.62 13.79,0 25.89,-2.88 36.15,-8.65 10.34,-5.84 18.35,-14.74 24.12,-26.77 5.69,-12.02 8.57,-25.24 8.57,-39.67 0,-16.26 -4.41,-28.84 -13.14,-37.9 -8.81,-8.97 -21.08,-13.46 -36.86,-13.46 -14.58,0 -27.17,3.36 -37.82,10.1 -10.66,6.73 -18.83,15.78 -24.68,27.25 -5.77,11.38 -8.65,23.24 -8.65,35.58z"></path> <path id="8" class="fil3" d="M2341.97 2943.18c-27.09,0 -48.24,-8.57 -63.39,-25.72 -15.14,-17.15 -22.75,-41.03 -22.75,-71.73 0,-28.36 5.53,-55.53 16.67,-81.5 11.14,-25.96 26.36,-46.64 45.92,-62.02 19.47,-15.31 40.95,-23 64.43,-23 17.79,0 32.05,4.81 42.71,14.35 10.66,9.54 15.95,22.52 15.95,38.95 0,28.37 -12.74,49.92 -38.39,64.83 -25.56,14.82 -63.54,22.28 -113.95,22.28l-7.77 0c-0.96,6.89 -1.36,14.58 -1.36,23 0,25.88 5.77,45.52 17.31,59.06 11.62,13.55 28.29,20.36 50,20.36 20.68,0 42.32,-5.69 64.84,-17.15l0 22.12c-21.88,10.82 -45.28,16.18 -70.2,16.18zm38.06 -243.77c-20.52,0 -39.59,9.06 -57.21,27.09 -17.55,18.11 -30.29,42.23 -38.15,72.44l11.54 0c80.94,0 121.32,-21.15 121.32,-63.38 0,-10.5 -3.36,-19.16 -10.18,-25.97 -6.81,-6.81 -15.94,-10.18 -27.33,-10.18z"></path> <polygon id="9" class="fil3" points="2824.24,2938.38 2800.76,2938.38 2836.26,2769.61 2657.79,2769.61 2622.85,2938.38 2598.65,2938.38 2671.41,2595.07 2695.38,2595.07 2662.76,2747.49 2841.14,2747.49 2873.36,2595.07 2896.84,2595.07 "></polygon> <path id="10" class="fil3" d="M2984.83 2683.06l-35.66 164.04c-3.45,16.59 -5.21,28.93 -5.21,37.1 0,11.62 3.77,20.76 11.22,27.57 7.37,6.81 18.27,10.26 32.45,10.26 17.23,0 33.5,-5.13 48.73,-15.38 15.3,-10.26 28.12,-24.92 38.54,-43.91 10.42,-19.08 18.19,-40.95 23.32,-65.71l24.68 -113.96 23 0 -54.25 255.32 -18.75 0 6.57 -48.08 -1.44 0c-26.13,34.62 -57.62,51.93 -94.56,51.93 -20.52,0 -36.06,-4.89 -46.64,-14.58 -10.58,-9.7 -15.87,-23.88 -15.87,-42.56 0,-9.37 1.76,-22.67 5.21,-39.91l35.18 -162.12 23.48 0z"></path> <path id="11" class="fil3" d="M3281.17 2942.22c-17.71,0 -32.21,-4.65 -43.67,-13.87 -11.46,-9.21 -18.99,-22.19 -22.76,-38.95l-1.44 0 -12.9 48.97 -18.75 0 76.77 -365.42 22.28 0c-20.52,98.41 -33.18,157.23 -38.06,176.46l1.44 0c14.58,-24.44 30.13,-42.39 46.72,-53.93 16.59,-11.46 34.7,-17.23 54.25,-17.23 43.99,0 65.95,29.33 65.95,88.07 0,31.82 -5.93,61.55 -17.87,89.27 -11.86,27.65 -27.57,49.05 -47.2,64.11 -19.56,14.98 -41.11,22.52 -64.76,22.52zm58.66 -242.81c-14.19,0 -28.29,4.81 -42.24,14.42 -13.94,9.62 -26.52,22.92 -37.66,39.83 -11.22,16.91 -19.55,35.26 -25,55.22 -5.53,19.87 -8.25,35.98 -8.25,48.32 0,20.2 5.05,36.06 15.06,47.6 10.02,11.46 23,17.23 38.95,17.23 19.39,0 36.94,-6.49 52.57,-19.47 15.71,-12.98 28.53,-32.22 38.55,-57.54 10.02,-25.4 14.98,-50.8 14.98,-76.37 0,-23.72 -3.85,-41.27 -11.46,-52.41 -7.69,-11.22 -19.48,-16.83 -35.5,-16.83z"></path> <path id="12" class="fil3" d="M3528.15 3053.77c-7.53,0 -15.46,-1.44 -23.96,-4.41l0 -21c8.33,2.48 16.18,3.77 23.48,3.77 13.79,0 24.28,-4.17 31.49,-12.42 7.22,-8.33 13.06,-22.84 17.63,-43.67l57.69 -273.74 -48.08 0 3.29 -15.95 48.08 -3.29 8.25 -37.5c5.45,-26.28 14.58,-45.35 27.33,-57.21 12.74,-11.86 30.61,-17.79 53.45,-17.79 11.38,0 24.36,2.4 38.94,7.3l-5.84 18.75c-13.63,-4.25 -25.17,-6.33 -34.54,-6.33 -14.98,0 -27.01,4.17 -36.06,12.5 -8.98,8.41 -15.55,22.36 -19.8,41.83l-8.25 38.46 58.26 0 -3.77 19.24 -58.26 0 -59.14 279.19c-5.13,25.16 -13.3,43.51 -24.36,55.05 -11.14,11.46 -26.44,17.23 -45.84,17.23z"></path> <path id="13" class="fil3" d="M3846.93 2678.25c28.21,0 50,8.49 65.39,25.48 15.46,16.99 23.16,40.47 23.16,70.36 0,30.85 -5.61,59.7 -16.83,86.55 -11.14,26.85 -26.45,47.28 -45.84,61.38 -19.48,14.11 -41.83,21.15 -67.16,21.15 -28.84,0 -50.72,-8.57 -65.63,-25.72 -14.98,-17.15 -22.44,-41.67 -22.44,-73.64 0,-29.89 5.69,-57.94 17.15,-84.07 11.46,-26.12 26.85,-46.24 46.24,-60.34 19.39,-14.11 41.42,-21.15 65.95,-21.15zm-1.84 20.2c-19.39,0 -36.86,6.17 -52.33,18.43 -15.54,12.26 -27.88,29.89 -37.1,52.89 -9.29,22.92 -13.86,47.2 -13.86,72.92 0,53.53 22.03,80.3 66.19,80.3 19.88,0 37.5,-6.09 52.97,-18.19 15.38,-12.18 27.65,-29.97 36.86,-53.53 9.13,-23.56 13.7,-49.45 13.7,-77.65 0,-24.12 -5.69,-42.72 -17.15,-55.7 -11.38,-12.98 -27.81,-19.47 -49.29,-19.47z"></path> <path id="14" class="fil3" d="M4125.89 2678.73c10.82,0 20.44,1.12 28.85,3.29l-4.89 21.87c-7.38,-2.32 -16.19,-3.52 -26.53,-3.52 -14.74,0 -28.77,4.97 -42.07,14.98 -13.3,10.02 -25.24,25.08 -35.9,45.12 -10.66,20.03 -18.43,41.67 -23.48,64.99l-23.48 112.91 -23 0 54.25 -255.32 18.75 0 -6.81 48 1.44 0c11.38,-14.66 21,-25.32 28.84,-31.81 7.85,-6.49 16.19,-11.54 25,-15.14 8.82,-3.61 18.51,-5.37 29.01,-5.37z"></path> <path id="15" class="fil3" d="M4422.87 2683.06l-4.25 19.24 -66.43 0 -31.65 149.05c-3.45,15.55 -5.21,28.37 -5.21,38.55 0,21.71 9.85,32.61 29.65,32.61 10.58,0 22.52,-2 35.66,-6.09l0 20.2c-15.79,4.41 -29.09,6.57 -39.91,6.57 -15.55,0 -27.49,-4.25 -35.9,-12.82 -8.5,-8.49 -12.75,-20.92 -12.75,-37.18 0,-11.46 2.33,-27.57 6.82,-48.4l30.29 -142.48 -42.71 0 3.28 -15.95 43.19 -4.01 22.76 -59.38 12.9 0 -12.9 60.1 67.15 0z"></path> <path id="16" class="fil3" d="M4583.95 2938.38l35.02 -162.44c3.29,-14.42 4.89,-26.61 4.89,-36.62 0,-12.5 -3.36,-22.27 -10.18,-29.33 -6.81,-7.05 -17.31,-10.58 -31.57,-10.58 -17.55,0 -33.98,5.21 -49.44,15.71 -15.39,10.5 -28.37,25.24 -38.95,44.15 -10.58,18.91 -18.67,41.27 -24.28,67.15l-23.96 111.95 -23 0 77.89 -365.42 22.6 0 -20.2 96.57c-6.89,31.33 -12.1,53.21 -15.54,65.55l1.44 0c12.18,-17.63 26.77,-31.41 43.75,-41.19 16.99,-9.78 34.94,-14.67 53.93,-14.67 19.4,0 34.38,5.05 45.04,15.23 10.66,10.18 15.95,24.52 15.95,42.95 0,10.98 -1.84,25.25 -5.61,42.8l-34.78 158.19 -23 0z"></path> <path id="17" class="fil3" d="M4783.09 2943.18c-27.09,0 -48.24,-8.57 -63.39,-25.72 -15.14,-17.15 -22.75,-41.03 -22.75,-71.73 0,-28.36 5.53,-55.53 16.67,-81.5 11.14,-25.96 26.36,-46.64 45.92,-62.02 19.47,-15.31 40.95,-23 64.43,-23 17.79,0 32.05,4.81 42.71,14.35 10.66,9.54 15.95,22.52 15.95,38.95 0,28.37 -12.74,49.92 -38.39,64.83 -25.56,14.82 -63.54,22.28 -113.95,22.28l-7.77 0c-0.96,6.89 -1.36,14.58 -1.36,23 0,25.88 5.77,45.52 17.31,59.06 11.62,13.55 28.29,20.36 50,20.36 20.68,0 42.32,-5.69 64.84,-17.15l0 22.12c-21.88,10.82 -45.28,16.18 -70.2,16.18zm38.06 -243.77c-20.52,0 -39.59,9.06 -57.21,27.09 -17.55,18.11 -30.29,42.23 -38.15,72.44l11.54 0c80.94,0 121.32,-21.15 121.32,-63.38 0,-10.5 -3.36,-19.16 -10.18,-25.97 -6.81,-6.81 -15.94,-10.18 -27.33,-10.18z"></path> <polygon id="18" class="fil3" points="5063.96,2938.38 5039.77,2938.38 5112.52,2595.07 5278.73,2595.07 5274.08,2617.19 5132.24,2617.19 5100.83,2762.88 5234.57,2762.88 5229.69,2784.99 5096.1,2784.99 "></polygon> <path id="19" class="fil3" d="M5356.22 2943.18c-27.09,0 -48.24,-8.57 -63.39,-25.72 -15.14,-17.15 -22.75,-41.03 -22.75,-71.73 0,-28.36 5.53,-55.53 16.67,-81.5 11.14,-25.96 26.36,-46.64 45.92,-62.02 19.47,-15.31 40.95,-23 64.43,-23 17.79,0 32.05,4.81 42.71,14.35 10.66,9.54 15.95,22.52 15.95,38.95 0,28.37 -12.74,49.92 -38.39,64.83 -25.56,14.82 -63.54,22.28 -113.95,22.28l-7.77 0c-0.96,6.89 -1.36,14.58 -1.36,23 0,25.88 5.77,45.52 17.31,59.06 11.62,13.55 28.29,20.36 50,20.36 20.68,0 42.32,-5.69 64.84,-17.15l0 22.12c-21.88,10.82 -45.28,16.18 -70.2,16.18zm38.06 -243.77c-20.52,0 -39.59,9.06 -57.21,27.09 -17.55,18.11 -30.29,42.23 -38.15,72.44l11.54 0c80.94,0 121.32,-21.15 121.32,-63.38 0,-10.5 -3.36,-19.16 -10.18,-25.97 -6.81,-6.81 -15.94,-10.18 -27.33,-10.18z"></path> <path id="20" class="fil3" d="M5631.41 2678.73c10.82,0 20.44,1.12 28.85,3.29l-4.89 21.87c-7.38,-2.32 -16.19,-3.52 -26.53,-3.52 -14.74,0 -28.77,4.97 -42.07,14.98 -13.3,10.02 -25.24,25.08 -35.9,45.12 -10.66,20.03 -18.43,41.67 -23.48,64.99l-23.48 112.91 -23 0 54.25 -255.32 18.75 0 -6.81 48 1.44 0c11.38,-14.66 21,-25.32 28.84,-31.81 7.85,-6.49 16.19,-11.54 25,-15.14 8.82,-3.61 18.51,-5.37 29.01,-5.37z"></path> <path id="21" class="fil3" d="M5803.47 2683.06l-4.25 19.24 -66.43 0 -31.65 149.05c-3.45,15.55 -5.21,28.37 -5.21,38.55 0,21.71 9.85,32.61 29.65,32.61 10.58,0 22.52,-2 35.66,-6.09l0 20.2c-15.79,4.41 -29.09,6.57 -39.91,6.57 -15.55,0 -27.49,-4.25 -35.9,-12.82 -8.5,-8.49 -12.75,-20.92 -12.75,-37.18 0,-11.46 2.33,-27.57 6.82,-48.4l30.29 -142.48 -42.71 0 3.28 -15.95 43.19 -4.01 22.76 -59.38 12.9 0 -12.9 60.1 67.15 0z"></path> <path id="22" class="fil3" d="M5826.06 2938.38l-23 0 54.17 -255.32 22.59 0 -53.77 255.32zm41.27 -320.7c0,-8.57 1.76,-15.47 5.21,-20.6 3.45,-5.21 8.09,-7.77 14.11,-7.77 8.89,0 13.38,5.61 13.38,16.91 0,8.9 -1.76,15.95 -5.21,21.16 -3.45,5.13 -7.85,7.69 -13.39,7.69 -4.49,0 -8.01,-1.52 -10.42,-4.57 -2.4,-3.04 -3.69,-7.29 -3.69,-12.82z"></path> <polygon id="23" class="fil3" points="5936.65,2938.38 5914.62,2938.38 5992.99,2572.95 6015.11,2572.95 "></polygon> <path id="24" class="fil3" d="M6049.17 2938.38l-23 0 54.17 -255.32 22.59 0 -53.77 255.32zm41.27 -320.7c0,-8.57 1.76,-15.47 5.21,-20.6 3.45,-5.21 8.09,-7.77 14.11,-7.77 8.89,0 13.38,5.61 13.38,16.91 0,8.9 -1.76,15.95 -5.21,21.16 -3.45,5.13 -7.85,7.69 -13.39,7.69 -4.49,0 -8.01,-1.52 -10.42,-4.57 -2.4,-3.04 -3.69,-7.29 -3.69,-12.82z"></path> <polygon id="25" class="fil3" points="6284.21,2938.38 6113.04,2938.38 6116.56,2921.47 6298.71,2702.78 6171.3,2702.78 6175.23,2683.06 6329.97,2683.06 6325.72,2702.78 6146.86,2918.67 6288.22,2918.67 "></polygon> <path id="26" class="fil3" d="M6438.23 2943.18c-27.09,0 -48.24,-8.57 -63.39,-25.72 -15.14,-17.15 -22.75,-41.03 -22.75,-71.73 0,-28.36 5.53,-55.53 16.67,-81.5 11.14,-25.96 26.36,-46.64 45.92,-62.02 19.47,-15.31 40.95,-23 64.43,-23 17.79,0 32.05,4.81 42.71,14.35 10.66,9.54 15.95,22.52 15.95,38.95 0,28.37 -12.74,49.92 -38.39,64.83 -25.56,14.82 -63.54,22.28 -113.95,22.28l-7.77 0c-0.96,6.89 -1.36,14.58 -1.36,23 0,25.88 5.77,45.52 17.31,59.06 11.62,13.55 28.29,20.36 50,20.36 20.68,0 42.32,-5.69 64.84,-17.15l0 22.12c-21.88,10.82 -45.28,16.18 -70.2,16.18zm38.06 -243.77c-20.52,0 -39.59,9.06 -57.21,27.09 -17.55,18.11 -30.29,42.23 -38.15,72.44l11.54 0c80.94,0 121.32,-21.15 121.32,-63.38 0,-10.5 -3.36,-19.16 -10.18,-25.97 -6.81,-6.81 -15.94,-10.18 -27.33,-10.18z"></path> <path id="27" class="fil3" d="M6713.42 2678.73c10.82,0 20.44,1.12 28.85,3.29l-4.89 21.87c-7.38,-2.32 -16.19,-3.52 -26.53,-3.52 -14.74,0 -28.77,4.97 -42.07,14.98 -13.3,10.02 -25.24,25.08 -35.9,45.12 -10.66,20.03 -18.43,41.67 -23.48,64.99l-23.48 112.91 -23 0 54.25 -255.32 18.75 0 -6.81 48 1.44 0c11.38,-14.66 21,-25.32 28.84,-31.81 7.85,-6.49 16.19,-11.54 25,-15.14 8.82,-3.61 18.51,-5.37 29.01,-5.37z"></path> <polygon id="28" class="fil3" points="6871.45,2938.38 6944.21,2595.07 6967.22,2595.07 6894.69,2938.38 "></polygon> <path id="29" class="fil3" d="M7145.19 2938.38l35.02 -162.44c3.29,-14.42 4.89,-26.61 4.89,-36.62 0,-12.5 -3.36,-22.27 -10.18,-29.33 -6.81,-7.05 -17.31,-10.58 -31.57,-10.58 -17.55,0 -33.98,5.21 -49.44,15.71 -15.39,10.5 -28.37,25.16 -38.95,43.99 -10.58,18.91 -18.67,41.35 -24.28,67.31l-23.96 111.95 -23 0 54.17 -255.32 19.31 0 -8.73 52.01 1.44 0c25.65,-37.26 58.18,-55.86 97.69,-55.86 20.36,0 35.58,4.97 45.76,14.99 10.18,10.02 15.23,24.44 15.23,43.19 0,10.98 -1.84,25.25 -5.61,42.8l-34.78 158.19 -23 0z"></path> <path id="30" class="fil3" d="M7388.01 2679.21c35.98,0 57.86,17.15 65.47,51.45l0.96 0c1.92,-10.34 13.06,-62.91 33.58,-157.71l23.24 0 -77.49 365.42 -19.23 0 10.58 -64.27 -1.44 0c-27.09,46.08 -60.26,69.08 -99.53,69.08 -43.99,0 -65.95,-29.25 -65.95,-87.83 0,-30.21 5.61,-59.22 16.75,-86.87 11.22,-27.73 26.68,-49.52 46.4,-65.47 19.71,-15.87 41.91,-23.8 66.67,-23.8zm-58.42 242.81c13.86,0 27.88,-4.89 41.83,-14.66 14.03,-9.78 26.61,-22.92 37.58,-39.43 11.06,-16.59 19.39,-34.61 25,-54.25 5.69,-19.71 8.49,-36.06 8.49,-49.21 0,-19.71 -4.81,-35.5 -14.5,-47.36 -9.62,-11.78 -22.76,-17.71 -39.51,-17.71 -19.39,0 -36.94,6.49 -52.57,19.48 -15.71,12.98 -28.53,31.97 -38.55,56.97 -10.01,24.92 -14.98,50.56 -14.98,76.93 0,46.16 15.71,69.24 47.2,69.24z"></path> <path id="31" class="fil3" d="M7589.63 2683.06l-35.66 164.04c-3.45,16.59 -5.21,28.93 -5.21,37.1 0,11.62 3.77,20.76 11.22,27.57 7.37,6.81 18.27,10.26 32.45,10.26 17.23,0 33.5,-5.13 48.73,-15.38 15.3,-10.26 28.12,-24.92 38.54,-43.91 10.42,-19.08 18.19,-40.95 23.32,-65.71l24.68 -113.96 23 0 -54.25 255.32 -18.75 0 6.57 -48.08 -1.44 0c-26.13,34.62 -57.62,51.93 -94.56,51.93 -20.52,0 -36.06,-4.89 -46.64,-14.58 -10.58,-9.7 -15.87,-23.88 -15.87,-42.56 0,-9.37 1.76,-22.67 5.21,-39.91l35.18 -162.12 23.48 0z"></path> <path id="32" class="fil3" d="M7935.98 2869.22c0,22.52 -8.09,40.47 -24.2,53.85 -16.11,13.38 -37.98,20.11 -65.71,20.11 -27.09,0 -50.96,-5.85 -71.64,-17.63l0 -25.08c11.62,7.21 23.56,12.74 35.9,16.67 12.42,3.93 23.96,5.85 34.78,5.85 21.63,0 38.14,-4.49 49.53,-13.55 11.46,-8.97 17.15,-21.79 17.15,-38.38 0,-6.57 -1.2,-12.34 -3.61,-17.39 -2.48,-4.97 -6.33,-9.77 -11.78,-14.42 -5.37,-4.57 -15.78,-11.3 -31.09,-20.03 -23.16,-12.58 -38.78,-23.96 -46.96,-34.22 -8.09,-10.26 -12.18,-22.76 -12.18,-37.42 0,-20.03 7.69,-36.46 23.08,-49.2 15.47,-12.74 35.74,-19.16 60.98,-19.16 11.7,0 24.12,1.36 37.18,4.09 13.07,2.81 24.04,6.42 33.02,10.98l-8.25 20.6c-21.31,-10.02 -41.91,-14.99 -61.95,-14.99 -18.19,0 -32.77,4.17 -43.67,12.42 -10.98,8.33 -16.42,19.16 -16.42,32.46 0,8.57 1.28,15.46 3.92,20.6 2.73,5.21 7.46,10.58 14.27,16.11 6.82,5.61 16.11,11.54 28.05,17.95 17.79,9.94 30.45,18.03 37.9,24.36 7.46,6.33 12.9,13.06 16.43,20.28 3.53,7.21 5.29,15.62 5.29,25.16z"></path> <path id="33" class="fil3" d="M8125.66 2683.06l-4.25 19.24 -66.43 0 -31.65 149.05c-3.45,15.55 -5.21,28.37 -5.21,38.55 0,21.71 9.85,32.61 29.65,32.61 10.58,0 22.52,-2 35.66,-6.09l0 20.2c-15.79,4.41 -29.09,6.57 -39.91,6.57 -15.55,0 -27.49,-4.25 -35.9,-12.82 -8.5,-8.49 -12.75,-20.92 -12.75,-37.18 0,-11.46 2.33,-27.57 6.82,-48.4l30.29 -142.48 -42.71 0 3.28 -15.95 43.19 -4.01 22.76 -59.38 12.9 0 -12.9 60.1 67.15 0z"></path> <path id="34" class="fil3" d="M8274.79 2678.73c10.82,0 20.44,1.12 28.85,3.29l-4.89 21.87c-7.38,-2.32 -16.19,-3.52 -26.53,-3.52 -14.74,0 -28.77,4.97 -42.07,14.98 -13.3,10.02 -25.24,25.08 -35.9,45.12 -10.66,20.03 -18.43,41.67 -23.48,64.99l-23.48 112.91 -23 0 54.25 -255.32 18.75 0 -6.81 48 1.44 0c11.38,-14.66 21,-25.32 28.84,-31.81 7.85,-6.49 16.19,-11.54 25,-15.14 8.82,-3.61 18.51,-5.37 29.01,-5.37z"></path> <path id="35" class="fil3" d="M8312.78 2683.06l23.48 0 19.31 128.7c7.93,54.98 12.26,90.07 12.91,105.46l2.56 0c6.73,-16.43 21.31,-45.2 43.67,-86.23l81.66 -147.93 24.2 0 -167.41 302.84c-11.22,19.87 -20.84,33.82 -28.77,41.83 -7.85,7.93 -16.83,14.35 -26.76,18.99 -9.94,4.73 -21.4,7.05 -34.38,7.05 -10.66,0 -20.76,-1.68 -30.29,-4.89l0 -21.63c11.14,4.25 21.87,6.33 32.21,6.33 12.5,0 23.96,-3.85 34.46,-11.62 10.5,-7.69 20.67,-20.6 30.53,-38.54 9.86,-18.03 17.71,-32.38 23.48,-43.19l-40.87 -257.16z"></path> <polygon class="fil4" points="-0,0 9031.13,0 9031.13,3117.75 -0,3117.75 "></polygon> <path class="fil5" d="M8667.69 137.83c22.88,0 44.81,5.7 65.78,17.17 21.04,11.41 37.56,27.81 49.56,49.14 12,21.33 18,43.67 18,67.03 0,23.23 -5.88,45.34 -17.65,66.43 -11.82,21.04 -28.22,37.44 -49.26,49.26 -21.09,11.77 -43.2,17.65 -66.43,17.65 -23.23,0 -45.34,-5.88 -66.43,-17.65 -21.04,-11.82 -37.44,-28.22 -49.26,-49.26 -11.77,-21.09 -17.65,-43.2 -17.65,-66.43 0,-23.36 6,-45.7 18.01,-67.03 12,-21.33 28.52,-37.73 49.56,-49.14 20.98,-11.47 42.91,-17.17 65.78,-17.17zm0.12 26.39c-18.36,0 -35.95,4.57 -52.77,13.72 -16.82,9.15 -30.07,22.29 -39.75,39.46 -9.69,17.12 -14.56,35.12 -14.56,53.84 0,18.66 4.76,36.48 14.2,53.36 9.45,16.93 22.64,30.13 39.57,39.64 16.93,9.5 34.7,14.26 53.31,14.26 18.65,0 36.42,-4.76 53.3,-14.26 16.93,-9.51 30.13,-22.7 39.64,-39.64 9.51,-16.88 14.27,-34.7 14.27,-53.36 0,-18.72 -4.88,-36.72 -14.57,-53.84 -9.68,-17.17 -22.94,-30.31 -39.81,-39.46 -16.94,-9.15 -34.53,-13.72 -52.83,-13.72zm-60.38 178.27l0 -141.19 28.65 0c26.86,0 41.95,0.12 45.16,0.36 9.51,0.77 16.88,2.67 22.16,5.64 5.22,2.91 9.62,7.43 13.19,13.55 3.51,6.06 5.29,12.83 5.29,20.2 0,10.22 -3.33,18.9 -9.99,26.15 -6.65,7.25 -15.98,11.71 -27.98,13.49 4.28,1.6 7.6,3.39 9.93,5.29 2.31,1.91 5.52,5.53 9.56,10.82 1.07,1.43 4.52,7.13 10.45,17.23l16.58 28.46 -35.65 0 -11.7 -22.99c-7.9,-15.4 -14.44,-25.14 -19.61,-29.12 -5.23,-3.98 -11.77,-6 -19.73,-6l-7.43 0 0 58.12 -28.88 0zm28.88 -80.58l11.59 0c16.52,0 26.8,-0.66 30.78,-1.9 3.98,-1.25 7.13,-3.45 9.45,-6.6 2.32,-3.15 3.45,-6.71 3.45,-10.76 0,-3.86 -1.13,-7.37 -3.39,-10.4 -2.26,-3.03 -5.47,-5.23 -9.63,-6.53 -4.16,-1.31 -14.38,-1.96 -30.66,-1.96l-11.59 0 0 38.15z"></path> </g> </svg> 